<svg width="263" height="531" viewBox="0 0 263 531" fill="none" xmlns="http://www.w3.org/2000/svg">
<rect width="263" height="530.857" rx="62" fill="#4F5665"/>
<rect x="9.27295" y="18.3145" width="244.204" height="503.465" rx="48" fill="url(#paint0_linear_614_8)"/>
<rect x="9.4375" y="9.23755" width="244.204" height="512.087" rx="48" fill="#FDBE4F"/>
<path d="M150.674 267.559C171.263 279.446 197.59 272.391 209.477 251.803C221.364 231.214 214.309 204.887 193.721 193L150.674 267.559Z" fill="#141414"/>
<path d="M70.2792 193.028C49.6904 204.915 42.6362 231.241 54.5231 251.83C66.4101 272.419 92.7369 279.473 113.326 267.586L70.2792 193.028Z" fill="#141414"/>
<path d="M91.4 330C90.9733 330 90.7 329.8 90.58 329.4L86.5 316.6L86.46 316.42C86.46 316.313 86.5 316.22 86.58 316.14C86.6733 316.047 86.78 316 86.9 316H89.38C89.5667 316 89.72 316.053 89.84 316.16C89.9733 316.267 90.06 316.387 90.1 316.52L92.94 325.76L95.76 316.52C95.8 316.387 95.88 316.267 96 316.16C96.1333 316.053 96.2933 316 96.48 316H98.98C99.0867 316 99.18 316.047 99.26 316.14C99.3533 316.22 99.4 316.313 99.4 316.42L99.36 316.6L95.28 329.4C95.16 329.8 94.8867 330 94.46 330H91.4ZM101.767 330C101.634 330 101.514 329.953 101.407 329.86C101.314 329.753 101.267 329.633 101.267 329.5V316.5C101.267 316.353 101.314 316.233 101.407 316.14C101.514 316.047 101.634 316 101.767 316H107.367C109.074 316 110.414 316.393 111.387 317.18C112.374 317.967 112.867 319.113 112.867 320.62C112.867 322.113 112.381 323.24 111.407 324C110.434 324.747 109.087 325.12 107.367 325.12H104.987V329.5C104.987 329.647 104.934 329.767 104.827 329.86C104.734 329.953 104.614 330 104.467 330H101.767ZM107.267 322.36C107.854 322.36 108.314 322.213 108.647 321.92C108.981 321.613 109.147 321.167 109.147 320.58C109.147 320.033 108.987 319.6 108.667 319.28C108.361 318.947 107.894 318.78 107.267 318.78H104.927V322.36H107.267ZM115.283 330C115.149 330 115.029 329.953 114.923 329.86C114.829 329.753 114.783 329.633 114.783 329.5V316.5C114.783 316.353 114.829 316.233 114.923 316.14C115.029 316.047 115.149 316 115.283 316H117.403C117.736 316 117.963 316.127 118.083 316.38L122.963 324.06V316.5C122.963 316.353 123.009 316.233 123.103 316.14C123.209 316.047 123.329 316 123.463 316H125.863C126.009 316 126.129 316.047 126.223 316.14C126.316 316.233 126.363 316.353 126.363 316.5V329.48C126.363 329.627 126.316 329.753 126.223 329.86C126.129 329.953 126.009 330 125.863 330H123.723C123.429 330 123.209 329.873 123.063 329.62L118.183 322.22V329.5C118.183 329.633 118.136 329.753 118.043 329.86C117.949 329.953 117.829 330 117.683 330H115.283ZM139.136 330.2C137.256 330.2 135.776 329.74 134.696 328.82C133.616 327.9 133.042 326.547 132.976 324.76C132.962 324.373 132.956 323.8 132.956 323.04C132.956 322.267 132.962 321.687 132.976 321.3C133.042 319.54 133.622 318.187 134.716 317.24C135.822 316.28 137.296 315.8 139.136 315.8C140.976 315.8 142.449 316.28 143.556 317.24C144.662 318.187 145.242 319.54 145.296 321.3C145.322 322.073 145.336 322.653 145.336 323.04C145.336 323.413 145.322 323.987 145.296 324.76C145.229 326.547 144.656 327.9 143.576 328.82C142.496 329.74 141.016 330.2 139.136 330.2ZM139.136 327.32C139.869 327.32 140.449 327.1 140.876 326.66C141.316 326.22 141.549 325.547 141.576 324.64C141.602 323.867 141.616 323.32 141.616 323C141.616 322.653 141.602 322.107 141.576 321.36C141.549 320.453 141.316 319.78 140.876 319.34C140.436 318.9 139.856 318.68 139.136 318.68C138.416 318.68 137.836 318.9 137.396 319.34C136.969 319.78 136.736 320.453 136.696 321.36C136.682 321.733 136.676 322.28 136.676 323C136.676 323.707 136.682 324.253 136.696 324.64C136.736 325.547 136.969 326.22 137.396 326.66C137.822 327.1 138.402 327.32 139.136 327.32ZM150.334 330C150.147 330 150.001 329.96 149.894 329.88C149.801 329.787 149.727 329.66 149.674 329.5L146.794 320.24L146.754 320.04C146.754 319.92 146.801 319.82 146.894 319.74C146.987 319.647 147.094 319.6 147.214 319.6H149.274C149.434 319.6 149.567 319.647 149.674 319.74C149.781 319.82 149.847 319.913 149.874 320.02L151.554 325.74L153.354 320.04C153.381 319.933 153.447 319.833 153.554 319.74C153.661 319.647 153.801 319.6 153.974 319.6H155.294C155.467 319.6 155.607 319.647 155.714 319.74C155.821 319.833 155.887 319.933 155.914 320.04L157.714 325.74L159.394 320.02C159.421 319.913 159.487 319.82 159.594 319.74C159.701 319.647 159.834 319.6 159.994 319.6H162.054C162.174 319.6 162.281 319.647 162.374 319.74C162.467 319.82 162.514 319.92 162.514 320.04L162.474 320.24L159.594 329.5C159.541 329.66 159.461 329.787 159.354 329.88C159.261 329.96 159.121 330 158.934 330H157.134C156.787 330 156.567 329.833 156.474 329.5L154.634 324.02L152.794 329.5C152.701 329.833 152.481 330 152.134 330H150.334ZM164.692 330C164.558 330 164.438 329.953 164.332 329.86C164.238 329.753 164.192 329.633 164.192 329.5V316.3C164.192 316.153 164.238 316.033 164.332 315.94C164.438 315.847 164.558 315.8 164.692 315.8H167.052C167.198 315.8 167.318 315.847 167.412 315.94C167.505 316.033 167.552 316.153 167.552 316.3V329.5C167.552 329.647 167.505 329.767 167.412 329.86C167.318 329.953 167.198 330 167.052 330H164.692Z" fill="#0B132A"/>
<defs>
<linearGradient id="paint0_linear_614_8" x1="131.375" y1="18.3145" x2="131.375" y2="521.78" gradientUnits="userSpaceOnUse">
<stop stop-color="#F2F6FC"/>
<stop offset="1" stop-color="#E1E8F4"/>
</linearGradient>
</defs>
</svg>
